<svg preserveAspectRatio="none" width="100%" height="100%" overflow="visible" style="display: block;" viewBox="0 0 60 35" fill="none" xmlns="http://www.w3.org/2000/svg">
<path id="Vector" fill-rule="evenodd" clip-rule="evenodd" d="M56.2657 13.2325C52.2075 20.7522 49.5021 28.1104 50.3586 35C43.548 35 36.7427 35 29.9321 35C23.1215 35 16.3162 35 9.50557 35C10.3621 28.1312 7.67237 20.8094 3.64033 13.3105C3.25907 13.6282 2.75768 13.8208 2.21972 13.8208C0.992356 13.8208 0 12.8262 0 11.6077C0 10.3891 0.992356 9.39451 2.21972 9.39451C3.44187 9.39451 4.43943 10.3839 4.43943 11.6077C4.43943 12.2274 4.18873 12.7794 3.78657 13.1803C10.3621 20.0647 15.1306 21.3301 16.5094 12.0763C16.3945 12.0919 16.2744 12.1024 16.1595 12.1024C14.9321 12.1024 13.9398 11.113 13.9398 9.88923C13.9398 8.66546 14.9321 7.67593 16.1595 7.67593C17.3816 7.67593 18.3792 8.66546 18.3792 9.88923C18.3792 10.8058 17.8203 11.5921 17.0265 11.9306C21.7584 19.1535 25.7068 17.9088 28.8301 7.60823C27.3625 7.03019 26.3231 5.6086 26.3231 3.93697C26.3231 1.76542 28.0885 0 30.2716 0C32.4547 0 34.2253 1.76542 34.2253 3.93697C34.2253 5.83252 32.8882 7.4156 31.102 7.79575C34.2253 17.9453 38.1633 19.1118 42.8795 11.8889C42.1379 11.5296 41.6208 10.7744 41.6208 9.89432C41.6208 8.67054 42.6132 7.68117 43.8406 7.68117C45.0679 7.68117 46.0602 8.67054 46.0602 9.89432C46.0602 11.1181 45.0679 12.1076 43.8406 12.1076C43.6787 12.1076 43.5115 12.0867 43.36 12.0555C44.7389 21.3666 49.5334 20.0752 56.1508 13.1231C55.7852 12.7326 55.5554 12.2014 55.5554 11.6181C55.5554 10.3996 56.5477 9.40484 57.7803 9.40484C59.0025 9.40484 60 10.3944 60 11.6181C60 12.8419 59.0077 13.8313 57.7803 13.8313C57.1954 13.8209 56.6678 13.597 56.2657 13.2325ZM48.4523 32.5316H11.694V33.6617H48.4523V32.5316Z" fill="url(#paint0_linear_0_9)"/>
<defs>
<linearGradient id="paint0_linear_0_9" x1="30" y1="0" x2="30" y2="35" gradientUnits="userSpaceOnUse">
<stop stop-color="#7E6FC0"/>
<stop offset="1" stop-color="#302A53"/>
</linearGradient>
</defs>
</svg>
